<svg width="70.000000" height="70.000000" viewBox="0 0 70 70" fill="none" xmlns="http://www.w3.org/2000/svg" xmlns:xlink="http://www.w3.org/1999/xlink">
	<desc>
			Created with Pixso.
	</desc>
	<defs>
		<clipPath id="clip1_61">
			<rect id="Icon" rx="0.000000" width="69.000000" height="69.000000" transform="matrix(1 0 0 -1 0.5 70.5)" fill="white" fill-opacity="0"/>
		</clipPath>
	</defs>
	<g clip-path="url(#clip1_61)">
		<path id="Vector" d="M37.93 17.5L43.75 17.5L43.75 49.56L37.93 49.56L37.93 17.5ZM49.56 8.75L55.43 8.75L55.43 49.56L49.56 49.56L49.56 8.75ZM26.25 26.25L32.06 26.25L32.06 49.56L26.25 49.56L26.25 26.25ZM11.68 55.43L58.31 55.43L58.31 61.25L11.68 61.25L11.68 55.43ZM14.56 35L20.43 35L20.43 49.56L14.56 49.56L14.56 35Z" fill="#00EEFF" fill-opacity="1.000000" fill-rule="nonzero"/>
	</g>
</svg>
