<svg width="58.378906" height="53.730469" viewBox="0 0 58.3789 53.7305" fill="none" xmlns="http://www.w3.org/2000/svg" xmlns:xlink="http://www.w3.org/1999/xlink">
	<desc>
			Created with Pixso.
	</desc>
	<defs/>
	<path id="Vector" d="M15.72 40.81L19.34 36.23L7.58 26.86L19.34 17.5L15.72 12.91L1.09 24.6C0.77 24.88 0.51 25.21 0.3 25.6C0.1 25.98 0 26.4 0 26.86C0 27.32 0.1 27.74 0.3 28.12C0.51 28.51 0.77 28.84 1.09 29.12L15.72 40.81ZM42.65 12.91L39.03 17.5L50.79 26.86L39.03 36.23L42.65 40.81L57.28 29.12C57.6 28.84 57.86 28.51 58.07 28.12C58.27 27.74 58.37 27.32 58.37 26.86C58.37 26.4 58.27 25.98 58.07 25.6C57.86 25.21 57.6 24.88 57.28 24.6L42.65 12.91ZM37.87 1.23L26.18 53.73L20.5 52.5L32.19 0L37.87 1.23Z" fill="#00EEFF" fill-opacity="1.000000" fill-rule="nonzero"/>
</svg>
