<svg width="15.175781" height="15.156250" viewBox="0 0 15.1758 15.1562" fill="none" xmlns="http://www.w3.org/2000/svg" xmlns:xlink="http://www.w3.org/1999/xlink">
	<desc>
			Created with Pixso.
	</desc>
	<defs/>
	<path id="Vector" d="M3.65 1.83C3.65 2.33 3.47 2.75 3.11 3.11C2.75 3.47 2.33 3.65 1.83 3.65C1.32 3.65 0.89 3.47 0.53 3.11C0.17 2.75 0 2.33 0 1.83C0 1.32 0.17 0.89 0.53 0.53C0.89 0.17 1.32 0 1.83 0C2.33 0 2.75 0.17 3.11 0.53C3.47 0.89 3.65 1.32 3.65 1.83ZM5.37 5.03L5.37 15.15L8.51 15.15L8.51 10.15C8.51 9.49 8.62 8.89 8.84 8.35C9.06 7.82 9.58 7.55 10.39 7.55C11.19 7.55 11.67 7.85 11.81 8.45C11.95 9.05 12.03 9.64 12.03 10.23L12.03 15.15L15.17 15.15L15.17 9.6C15.17 8.24 14.94 7.09 14.48 6.17C14.02 5.24 12.99 4.78 11.4 4.78C10.63 4.78 10 4.95 9.5 5.3C9 5.64 8.64 6.02 8.43 6.42L8.37 6.42L8.37 5.03L5.37 5.03ZM0.25 5.03L3.39 5.03L3.39 15.15L0.25 15.15L0.25 5.03Z" fill="#00EEFF" fill-opacity="1.000000" fill-rule="nonzero"/>
</svg>
