<svg width="7.773438" height="15.000000" viewBox="0 0 7.77344 15" fill="none" xmlns="http://www.w3.org/2000/svg" xmlns:xlink="http://www.w3.org/1999/xlink">
	<desc>
			Created with Pixso.
	</desc>
	<defs/>
	<path id="Vector" d="M5.05 15L5.05 8.16L7.36 8.16L7.69 5.48L5.05 5.48L5.05 3.78C5.05 3.39 5.13 3.08 5.3 2.84C5.46 2.6 5.82 2.48 6.36 2.48L7.77 2.48L7.77 0.09C7.47 0.07 7.15 0.04 6.81 0.02C6.47 0 6.13 0 5.8 0C5.78 0 5.77 0 5.76 0C5.74 0 5.73 0 5.72 0C4.7 0 3.88 0.3 3.24 0.9C2.6 1.51 2.28 2.38 2.28 3.53L2.28 5.48L0 5.48L0 8.16L2.28 8.16L2.28 15L5.05 15Z" fill="#00EEFF" fill-opacity="1.000000" fill-rule="nonzero"/>
</svg>
