<svg width="15.000000" height="15.039062" viewBox="0 0 15 15.0391" fill="none" xmlns="http://www.w3.org/2000/svg" xmlns:xlink="http://www.w3.org/1999/xlink">
	<desc>
			Created with Pixso.
	</desc>
	<defs/>
	<path id="Vector" d="M14.96 4.43C14.94 4.1 14.91 3.78 14.85 3.46C14.79 3.14 14.7 2.84 14.58 2.55L14.6 2.59C14.41 2.08 14.12 1.64 13.75 1.26C13.37 0.89 12.93 0.6 12.44 0.41L12.42 0.39C12.14 0.28 11.85 0.2 11.55 0.14C11.24 0.08 10.93 0.05 10.6 0.05L10.58 0.05C10.18 0.03 9.82 0.01 9.5 0C9.18 0 8.51 0 7.5 0C6.48 0 5.81 0 5.48 0C5.16 0.01 4.8 0.03 4.41 0.05C4.07 0.05 3.75 0.09 3.44 0.15C3.14 0.22 2.84 0.3 2.55 0.41L2.57 0.39C2.08 0.59 1.64 0.89 1.26 1.26C0.89 1.64 0.6 2.07 0.41 2.55L0.39 2.59C0.28 2.87 0.2 3.16 0.14 3.46C0.08 3.77 0.05 4.08 0.03 4.41C0.02 4.81 0.01 5.17 0 5.49C0 5.81 0 6.48 0 7.5C0 8.51 0 9.18 0 9.51C0 9.83 0.01 10.2 0.03 10.6C0.05 10.91 0.08 11.22 0.14 11.52C0.2 11.82 0.28 12.12 0.39 12.42C0.58 12.92 0.87 13.37 1.25 13.75C1.62 14.12 2.06 14.41 2.55 14.6L2.59 14.6C2.85 14.72 3.14 14.81 3.44 14.88C3.75 14.94 4.06 14.98 4.39 14.98L4.41 14.98C4.81 15 5.17 15.02 5.49 15.02C5.81 15.03 6.48 15.03 7.5 15.03C8.51 15.03 9.18 15.03 9.51 15.02C9.83 15.02 10.19 15 10.58 14.98C10.92 14.98 11.24 14.94 11.55 14.88C11.85 14.81 12.16 14.73 12.46 14.62L12.42 14.64C12.91 14.44 13.35 14.14 13.73 13.76C14.1 13.39 14.39 12.96 14.58 12.48L14.6 12.44C14.71 12.15 14.79 11.85 14.85 11.55C14.91 11.24 14.94 10.93 14.96 10.62C14.97 10.22 14.98 9.86 14.99 9.54C14.99 9.22 15 8.55 15 7.53C15 6.51 15 5.83 15 5.51C15 5.19 14.98 4.83 14.96 4.43ZM7.5 11.34C6.96 11.34 6.46 11.25 5.99 11.05C5.52 10.84 5.11 10.56 4.76 10.22C4.41 9.87 4.14 9.47 3.94 9C3.73 8.53 3.63 8.03 3.63 7.5C3.63 6.96 3.73 6.46 3.94 5.99C4.14 5.52 4.41 5.12 4.76 4.77C5.11 4.43 5.52 4.15 5.99 3.94C6.46 3.75 6.96 3.65 7.5 3.65C8.03 3.65 8.53 3.75 9 3.94C9.45 4.15 9.86 4.43 10.21 4.77C10.56 5.12 10.83 5.52 11.03 5.99C11.24 6.46 11.34 6.96 11.34 7.5C11.34 8.03 11.24 8.53 11.03 9C10.83 9.47 10.56 9.87 10.21 10.22C9.86 10.56 9.45 10.84 9 11.05C8.53 11.25 8.03 11.34 7.5 11.34ZM11.5 4.41C11.25 4.41 11.04 4.32 10.86 4.15C10.69 3.97 10.6 3.76 10.6 3.51C10.6 3.26 10.69 3.05 10.86 2.88C11.04 2.7 11.25 2.61 11.5 2.61C11.75 2.61 11.96 2.7 12.13 2.88C12.31 3.05 12.4 3.26 12.4 3.51C12.4 3.76 12.31 3.97 12.13 4.15C11.96 4.32 11.75 4.41 11.5 4.41ZM10 7.5C10 8.19 9.75 8.77 9.26 9.26C8.77 9.75 8.19 10 7.5 10C6.8 10 6.22 9.75 5.73 9.26C5.24 8.77 5 8.19 5 7.5C5 6.8 5.24 6.22 5.73 5.73C6.22 5.24 6.8 5 7.5 5C8.19 5 8.77 5.24 9.26 5.73C9.75 6.22 10 6.8 10 7.5Z" fill="#00EEFF" fill-opacity="1.000000" fill-rule="nonzero"/>
</svg>
