<svg width="55.439453" height="55.250122" viewBox="0 0 55.4395 55.2501" fill="none" xmlns="http://www.w3.org/2000/svg" xmlns:xlink="http://www.w3.org/1999/xlink">
	<desc>
			Created with Pixso.
	</desc>
	<defs/>
	<path id="Vector" d="M52.77 2.52C51.04 0.84 48.88 0 46.31 0C43.73 0 41.58 0.84 39.85 2.52L15.44 27C15.17 27.27 14.95 27.58 14.79 27.92C14.64 28.26 14.56 28.64 14.56 29.05C14.56 29.46 14.64 29.83 14.79 30.18C14.95 30.52 15.17 30.83 15.44 31.1L24.19 39.85C24.47 40.12 24.78 40.34 25.12 40.5C25.46 40.66 25.83 40.74 26.25 40.74C26.66 40.74 27.03 40.66 27.37 40.5C27.71 40.34 28.02 40.12 28.3 39.85L52.77 15.44C53.59 14.62 54.24 13.66 54.72 12.54C55.2 11.42 55.43 10.25 55.43 9.02C55.43 7.74 55.2 6.55 54.72 5.43C54.24 4.31 53.59 3.34 52.77 2.52ZM48.6 11.27L26.25 33.7L21.6 29.05L44.02 6.69C44.29 6.38 44.63 6.14 45.04 5.98C45.45 5.82 45.86 5.74 46.27 5.74C46.73 5.74 47.16 5.82 47.57 5.98C47.98 6.14 48.33 6.38 48.6 6.69C48.92 6.97 49.16 7.31 49.32 7.72C49.48 8.13 49.56 8.56 49.56 9.02C49.56 9.43 49.48 9.84 49.32 10.25C49.16 10.66 48.92 11 48.6 11.27ZM14.56 37.8C12.73 36.89 10.58 36.9 8.1 37.83C5.61 38.77 4.37 40.69 4.37 43.61C4.37 45.39 4.37 46.92 4.37 48.22C4.37 49.52 2.91 50.9 0 52.36C0 52.36 0.52 52.68 1.57 53.32C2.62 53.91 3.94 54.41 5.53 54.82C7.13 55.23 8.88 55.34 10.8 55.16C12.66 54.93 14.42 54 16.06 52.36C17.88 50.54 18.82 48.02 18.86 44.8C18.91 41.59 17.47 39.26 14.56 37.8Z" fill="#00EEFF" fill-opacity="1.000000" fill-rule="nonzero"/>
</svg>
