<svg width="16.425781" height="13.320312" viewBox="0 0 16.4258 13.3203" fill="none" xmlns="http://www.w3.org/2000/svg" xmlns:xlink="http://www.w3.org/1999/xlink">
	<desc>
			Created with Pixso.
	</desc>
	<defs/>
	<path id="Vector" d="M14.7 3.32C14.7 3.39 14.7 3.47 14.7 3.54C14.7 3.61 14.7 3.69 14.7 3.76C14.7 4.87 14.49 5.99 14.08 7.12C13.66 8.26 13.05 9.28 12.24 10.2C11.43 11.12 10.44 11.86 9.25 12.44C8.07 13.02 6.7 13.32 5.15 13.32C4.2 13.32 3.29 13.18 2.42 12.91C1.54 12.65 0.74 12.27 0 11.79C0.14 11.82 0.27 11.83 0.41 11.83C0.54 11.83 0.67 11.83 0.82 11.83C0.82 11.83 0.82 11.83 0.83 11.83C1.62 11.83 2.36 11.7 3.07 11.45C3.78 11.2 4.42 10.84 5 10.39L4.98 10.41C4.25 10.39 3.6 10.17 3.03 9.74C2.47 9.31 2.07 8.76 1.85 8.1L1.85 8.08C1.94 8.09 2.04 8.11 2.15 8.12C2.26 8.13 2.37 8.14 2.48 8.14C2.63 8.14 2.78 8.13 2.92 8.1C3.07 8.07 3.21 8.05 3.35 8.02C2.59 7.85 1.94 7.46 1.43 6.85C0.92 6.24 0.66 5.53 0.66 4.72L0.66 4.68C0.89 4.8 1.14 4.9 1.39 4.98C1.65 5.05 1.91 5.1 2.18 5.11C1.73 4.8 1.36 4.4 1.09 3.91C0.82 3.42 0.68 2.89 0.68 2.32C0.68 2.01 0.72 1.71 0.81 1.42C0.89 1.13 1 0.87 1.15 0.62C1.56 1.13 2.03 1.59 2.53 2.01C3.04 2.42 3.59 2.78 4.17 3.08C4.76 3.38 5.38 3.62 6.03 3.8C6.68 3.99 7.35 4.1 8.04 4.14L8.06 4.14C8.04 4.01 8.02 3.88 8 3.75C7.99 3.61 7.98 3.48 7.98 3.35C7.98 2.43 8.31 1.64 8.97 0.98C9.63 0.32 10.42 0 11.34 0C11.82 0 12.28 0.09 12.7 0.29C13.12 0.48 13.48 0.74 13.78 1.07C14.19 0.99 14.57 0.88 14.93 0.74C15.28 0.59 15.63 0.42 15.95 0.23L15.91 0.25C15.78 0.65 15.59 1.01 15.35 1.32C15.1 1.64 14.81 1.9 14.47 2.1L14.45 2.1C14.8 2.07 15.14 2 15.47 1.91C15.81 1.82 16.12 1.7 16.42 1.56L16.38 1.58C16.15 1.92 15.89 2.23 15.61 2.51C15.33 2.8 15.03 3.06 14.72 3.3L14.7 3.32Z" fill="#00EEFF" fill-opacity="1.000000" fill-rule="nonzero"/>
</svg>
